<svg width="41" height="40" viewBox="0 0 41 40" fill="none" xmlns="http://www.w3.org/2000/svg">
<g opacity="0.8">
<path d="M32.7942 15.6388C34.4164 15.6388 36.0021 15.1802 37.3508 14.321C38.6996 13.4618 39.7508 12.2406 40.3716 10.8117C40.9923 9.38294 41.1548 7.81072 40.8383 6.29391C40.5218 4.7771 39.7407 3.38381 38.5937 2.29025C37.4467 1.19669 35.9853 0.451967 34.3943 0.150255C32.8033 -0.151458 31.1543 0.00339181 29.6556 0.595223C28.157 1.18705 26.876 2.18928 25.9748 3.47518C25.0736 4.76107 24.5926 6.27287 24.5926 7.8194C24.5926 9.89323 25.4567 11.8821 26.9948 13.3485C28.5329 14.815 30.619 15.6388 32.7942 15.6388ZM32.7942 3.9097C33.6053 3.9097 34.3982 4.139 35.0725 4.5686C35.7469 4.99821 36.2725 5.60882 36.5829 6.32322C36.8933 7.03762 36.9745 7.82373 36.8163 8.58214C36.658 9.34054 36.2675 10.0372 35.694 10.584C35.1205 11.1307 34.3898 11.5031 33.5943 11.654C32.7988 11.8048 31.9743 11.7274 31.2249 11.4315C30.4756 11.1356 29.8351 10.6345 29.3845 9.9915C28.9339 9.34856 28.6934 8.59266 28.6934 7.8194C28.6934 6.78248 29.1255 5.78803 29.8945 5.05482C30.6636 4.32161 31.7066 3.9097 32.7942 3.9097ZM30.4363 20.4673C30.2524 20.1844 29.9958 19.9509 29.6908 19.789C29.3858 19.6272 29.0425 19.5422 28.6934 19.5422C28.3443 19.5422 28.0011 19.6272 27.6961 19.789C27.3911 19.9509 27.1345 20.1844 26.9506 20.4673L24.9002 23.6537L18.1543 12.7065C17.9728 12.4148 17.7147 12.1732 17.4056 12.0053C17.0964 11.8375 16.7467 11.7492 16.391 11.7492C16.0352 11.7492 15.6855 11.8375 15.3764 12.0053C15.0672 12.1732 14.8092 12.4148 14.6276 12.7065L0.274725 36.1647C0.0952781 36.461 0.000547656 36.797 2.36748e-06 37.1392C-0.000542921 37.4813 0.0931157 37.8176 0.271617 38.1144C0.450119 38.4113 0.707211 38.6582 1.0172 38.8307C1.32718 39.0031 1.6792 39.0949 2.03808 39.0969H38.9455C39.3118 39.0976 39.6717 39.0048 39.9876 38.8279C40.3036 38.6511 40.5641 38.3968 40.742 38.0915C40.9199 37.7861 41.0088 37.4409 40.9993 37.0918C40.9899 36.7426 40.8825 36.4022 40.6883 36.106L30.4363 20.4673ZM17.3136 35.1873H5.60579L16.391 17.5936L22.4192 27.3679L19.8562 31.2776L17.3136 35.1873ZM22.1321 35.1873L25.1872 30.5543L26.643 28.4821L28.6934 25.198L35.2547 35.1873H22.1321Z" fill="#F0F0F0"/>
</g>
</svg>
